<svg height="512" viewBox="0 0 64 64" width="512" xmlns="http://www.w3.org/2000/svg"><g id="Donut"><path d="m60.54 26.84h-.01a29 29 0 0 0 -57.39 2.28 29.7 29.7 0 0 0 -.14 3 29 29 0 0 0 57.75 3.63 27.592 27.592 0 0 0 .25-3.88 28.688 28.688 0 0 0 -.46-5.03zm-28.49 16.16a11.009 11.009 0 0 1 -11.05-10.96 10.65 10.65 0 0 1 .4-3 11 11 0 0 1 21.6 2.91 10.846 10.846 0 0 1 -.94 4.49 11 11 0 0 1 -10.01 6.56z" fill="#ffc477"/><path d="m61 31.87a27.592 27.592 0 0 1 -.25 3.88 15.115 15.115 0 0 1 -9.72 3.16 15.821 15.821 0 0 1 -8.97-2.47 10.846 10.846 0 0 0 .94-4.49 11 11 0 0 0 -21.6-2.91l-3.41.02a4 4 0 0 0 -3.99 3.99v.04a3 3 0 0 1 -5.11 2.13 2.96 2.96 0 0 1 -.89-2.12 3.99 3.99 0 0 0 -4.01-3.98h-.85a29 29 0 0 1 57.39-2.28h.01a28.688 28.688 0 0 1 .46 5.03z" fill="#e4187a"/><path d="m32 2h-.13a30 30 0 0 0 .13 60h.132a30 30 0 0 0 -.132-60zm-19.885 10.283a27.817 27.817 0 0 1 19.763-8.283h.122a27.949 27.949 0 0 1 27.806 31.22 14.481 14.481 0 0 1 -8.784 2.694h-.1a15.369 15.369 0 0 1 -7.631-1.879 11.992 11.992 0 0 0 -11.291-16.035h-.053a11.969 11.969 0 0 0 -11.27 8.048l-2.693.016a5.017 5.017 0 0 0 -4.984 5.026 2 2 0 0 1 -1.98 2 2.031 2.031 0 0 1 -1.429-.583 1.96 1.96 0 0 1 -.591-1.407 4.953 4.953 0 0 0 -4.736-4.949 27.792 27.792 0 0 1 7.851-15.868zm19.929 29.717h-.044a10 10 0 0 1 -.043-20h.043a10 10 0 0 1 .043 20zm.078 18h-.122a28.033 28.033 0 0 1 -28-27.882c0-.669.026-1.332.069-1.992a2.981 2.981 0 0 1 2.931 2.974 3.946 3.946 0 0 0 1.189 2.835 4 4 0 0 0 6.811-2.885 3.006 3.006 0 0 1 3-2.99l2.173-.013a12.08 12.08 0 0 0 -.169 2 12 12 0 0 0 11.996 11.953h.053a11.925 11.925 0 0 0 8.47-3.552 12.075 12.075 0 0 0 1.937-2.577 17.568 17.568 0 0 0 8.464 2.044h.112a17.606 17.606 0 0 0 8.327-1.988 28.046 28.046 0 0 1 -27.241 22.073z"/><path d="m22.904 9.026h4v2h-4z" transform="matrix(1 -.004 .004 1 -.039 .097)"/><path d="m15.935 16.054h5v2h-5z" transform="matrix(.597 -.803 .803 .597 -6.25 21.676)"/><path d="m36.913 10.963h5v2h-5z" transform="matrix(.597 -.803 .803 .597 6.3 36.458)"/><path d="m45.938 16.931h2v2h-2z" transform="matrix(1 -.004 .004 1 -.07 .183)"/><path d="m13.97 23.656h2v2.828h-2z" transform="matrix(.704 -.71 .71 .704 -13.372 18.046)"/><path d="m28.935 16h4v2h-4z" transform="matrix(1 -.004 .004 1 -.066 .121)"/><path d="m47.995 28.922h2v4h-2z" transform="matrix(1 -.004 .004 1 -.135 .216)"/><path d="m55.002 29.891h2v5h-2z" transform="matrix(.596 -.803 .803 .596 -3.399 58.023)"/></g></svg>